<svg width="20.417mm" height="5.8915mm" version="1.1" viewBox="0 0 20.417 5.8915" xmlns="http://www.w3.org/2000/svg">
 <g transform="translate(-128.89 -161.1)">
  <path d="m130.75 164.39c0.90241 0.84137 1.9138 1.2654 3.0254 1.2651h3.5362c0.01-1e-3 0.0416 7e-3 0.0847 0.0286 0.13158 0.0635 0.37006 0.23424 0.70308 0.50729 0.44732 0.36583 0.75212 0.62018 0.91334 0.76094l0.0367 0.0321 0.0367-0.0318c0.16193-0.14111 0.46673-0.39546 0.91334-0.76129 0.22261-0.18203 0.40429-0.31821 0.54363-0.40781 0.0695-0.0448 0.12842-0.0776 0.17569-0.0988 0.0466-0.0215 0.0822-0.03 0.0988-0.0293h3.5669c1.1317 3.5e-4 2.1484-0.41839 3.0406-1.2499 0.89253-0.83079 1.5131-1.9131 1.8606-3.2427l0.0183-0.0698h-0.75459l-0.0117 0.0402c-0.32244 1.1303-0.86607 2.0447-1.6302 2.7485l0.0377 0.0413-0.0381-0.0413c-0.76411 0.70415-1.6023 1.052-2.5227 1.0523h-3.5669c-0.17639 3.5e-4 -0.38136 0.0649-0.62019 0.18944-0.23742 0.12383-0.48401 0.28857-0.74048 0.49354-0.12735 0.1016-0.22754 0.18309-0.30198 0.24447-0.0466 0.0388-0.0811 0.0681-0.10724 0.091-0.35066-0.29104-0.66005-0.53093-0.9264-0.71861-0.28045-0.1972-0.55033-0.29986-0.80962-0.29986h-3.5362c-0.92005-3.5e-4 -1.7533-0.34361-2.5076-1.0368-0.75353-0.69356-1.2919-1.6133-1.6154-2.7637l-0.0113-0.0406h-0.75389l0.0176 0.0691c0.32703 1.3099 0.94263 2.3876 1.845 3.2283"/>
 </g>
</svg>
