<svg width="210mm" height="297mm" version="1.1" viewBox="0 0 210 297" xmlns="http://www.w3.org/2000/svg">
 <g>
  <path d="m95.22 145.56c0.90241 0.84137 1.9138 1.2654 3.0254 1.2651h3.5362c0.01-1e-3 0.0416 7e-3 0.0847 0.0286 0.13158 0.0635 0.37006 0.23424 0.70308 0.50729 0.44732 0.36583 0.75212 0.62018 0.91334 0.76094l0.0367 0.0321 0.0367-0.0318c0.16193-0.14111 0.46673-0.39546 0.91334-0.76129 0.22261-0.18203 0.40429-0.31821 0.54363-0.40781 0.0695-0.0448 0.12842-0.0776 0.17569-0.0988 0.0466-0.0215 0.0822-0.03 0.0988-0.0293h3.5669c1.1317 3.5e-4 2.1484-0.41839 3.0406-1.2499 0.89253-0.83079 1.5131-1.9131 1.8606-3.2427l0.0183-0.0698h-0.75459l-0.0117 0.0402c-0.32244 1.1303-0.86607 2.0447-1.6302 2.7485l0.0377 0.0413-0.0381-0.0413c-0.76411 0.70415-1.6023 1.052-2.5227 1.0523h-3.5669c-0.17639 3.5e-4 -0.38136 0.0649-0.62019 0.18944-0.23742 0.12383-0.48401 0.28857-0.74048 0.49354-0.12735 0.1016-0.22754 0.18309-0.30198 0.24447-0.0466 0.0388-0.0811 0.0681-0.10724 0.091-0.35066-0.29104-0.66005-0.53093-0.9264-0.71861-0.28045-0.1972-0.55033-0.29986-0.80962-0.29986h-3.5362c-0.92005-3.5e-4 -1.7533-0.34361-2.5076-1.0368-0.75353-0.69356-1.2919-1.6133-1.6154-2.7637l-0.0113-0.0406h-0.75389l0.0176 0.0691c0.32703 1.3099 0.94263 2.3876 1.845 3.2283"/>
  <g transform="translate(-2.2679 6.0477)">
   <path d="m94.624 160.08c-0.2219 0-0.42721-0.0561-0.6156-0.16827-0.18874-0.11219-0.33796-0.26318-0.44732-0.45297-0.10971-0.1898-0.16475-0.39688-0.16475-0.62124 0-0.22437 0.05503-0.43145 0.16475-0.62124 0.10936-0.1898 0.25859-0.34008 0.44732-0.45121 0.18838-0.11077 0.3937-0.16616 0.6156-0.16616 0.17251 0 0.33831 0.0349 0.49742 0.10548 0.15875 0.0702 0.29633 0.1704 0.4124 0.30128l-0.30727 0.27728c-0.07867-0.0864-0.17039-0.15275-0.27517-0.19967-0.10513-0.0469-0.21414-0.0702-0.32738-0.0702-0.14781 0-0.28399 0.0367-0.40852 0.11077-0.12453 0.0741-0.22331 0.17427-0.29598 0.30127-0.07267 0.127-0.10901 0.26458-0.10901 0.4124 0 0.14781 0.03634 0.28539 0.10901 0.41239 0.07267 0.127 0.1718 0.2279 0.29774 0.30304 0.12559 0.0751 0.26141 0.11289 0.40675 0.11289 0.12312 0 0.23989-0.0272 0.3496-0.0815 0.10936-0.054 0.2039-0.12947 0.28258-0.22543l0.32561 0.25894c-0.11606 0.14535-0.25788 0.25859-0.42545 0.34008-0.16757 0.0815-0.34502 0.12206-0.53234 0.12206"/>
   <path d="m98.662 158.02c-0.14781 0-0.28399 0.037-0.40852 0.11077-0.12453 0.0741-0.22331 0.17463-0.29598 0.30163-0.07267 0.127-0.10901 0.26423-0.10901 0.41239 0 0.14782 0.03634 0.28505 0.10901 0.41205 0.07267 0.127 0.17145 0.22754 0.29598 0.30127 0.12453 0.0741 0.2607 0.11113 0.40852 0.11113s0.28399-0.037 0.40852-0.11113c0.12453-0.0737 0.22331-0.17357 0.29598-0.29915 0.07267-0.12595 0.10901-0.26388 0.10901-0.41417 0-0.15063-0.03634-0.28857-0.10901-0.41416-0.07267-0.12594-0.17145-0.22577-0.29598-0.29986-0.12453-0.0737-0.2607-0.11077-0.40852-0.11077m0 2.0634c-0.2219 0-0.42686-0.0554-0.6156-0.16651-0.18874-0.11078-0.33831-0.26141-0.44944-0.45121-0.11077-0.18979-0.16616-0.39652-0.16616-0.62089 0-0.22436 0.05539-0.43144 0.16616-0.62124 0.11112-0.18979 0.2607-0.34043 0.44944-0.4512s0.3937-0.16651 0.6156-0.16651 0.42721 0.0557 0.6156 0.16651c0.18874 0.11077 0.33831 0.26141 0.44944 0.4512 0.11077 0.1898 0.16651 0.39688 0.16651 0.62124 0 0.22437-0.05574 0.4311-0.16651 0.62089-0.11112 0.1898-0.2607 0.34043-0.44944 0.45121-0.18838 0.11112-0.3937 0.16651-0.6156 0.16651"/>
   <path d="m103.64 158.94 0.43991-1.3162h0.43992l-0.83221 2.4885-0.6357-1.4644-0.63606 1.4644-0.83926-2.4885h0.43992l0.44379 1.3236 0.59161-1.3607z"/>
   <path d="m106.37 159.94c0-0.037 0.0127-0.0684 0.0388-0.0942 0.0258-0.0261 0.0561-0.0388 0.0907-0.0388 0.0342 0 0.0646 0.0134 0.0903 0.0406 0.0258 0.0272 0.0388 0.0579 0.0388 0.0924 0 0.0346-0.0131 0.0642-0.0388 0.0889-0.0258 0.0243-0.0561 0.0367-0.0903 0.0367-0.0346 0-0.0649-0.0124-0.0907-0.0367-0.0261-0.0247-0.0388-0.0543-0.0388-0.0889"/>
   <path d="m108.82 159.89h0.52493c0.29845 0 0.54116-0.10477 0.72849-0.31432 0.0864-0.0935 0.15205-0.2025 0.19791-0.32738 0.0455-0.12418 0.0684-0.25682 0.0684-0.39723 0-0.13794-0.0229-0.26952-0.0684-0.39405-0.0459-0.12418-0.11148-0.23319-0.19791-0.32703-0.1898-0.20461-0.43251-0.30691-0.72849-0.30691h-0.52493zm0.52493 0.16651h-0.69144v-2.4035h0.69144c0.17004 0 0.32809 0.0314 0.47343 0.0942 0.14535 0.0628 0.27093 0.15205 0.37712 0.26811 0.10089 0.11077 0.17851 0.23777 0.23283 0.381 0.0543 0.14287 0.0815 0.29422 0.0815 0.45473 0 0.16016-0.0272 0.31186-0.0815 0.45473-0.0543 0.14323-0.13194 0.27129-0.23283 0.38453-0.10619 0.11853-0.23177 0.20884-0.37712 0.27164-0.14534 0.0631-0.30339 0.0945-0.47343 0.0945"/>
   <path d="m112.54 160.06v-2.4035h1.5568v0.17003h-1.3906v0.94686h1.0834v0.16969h-1.0834v0.94297h1.3906v0.17392z"/>
   <path d="m117.18 159.69 0.90946-2.0302h0.18486l-1.0943 2.4444-1.0908-2.4444h0.18133z"/>
  </g>
  <path d="m113.31 151.27c-0.32879 0.30868-0.74013 0.61242-1.2361 0.83855-0.49636 0.22613-1.0774 0.37606-1.7579 0.37606-0.54293 0-1.1508-0.0967-1.8295-0.33125l0.34678-1.7085h5.1915c-0.16404 0.23354-0.40111 0.53129-0.71473 0.82515m-6.9677 8.3344c-0.0914 0.45191-0.48895 0.77682-0.95039 0.77682h-0.48154c0.0881-0.40106 0.24326-0.81718 0.45754-1.0795 0.13547-0.16157 0.30692-0.30903 0.5327-0.42862 0.17462-0.0924 0.38312-0.16757 0.63394-0.2159zm-5.4635 0-0.19191-0.9465c0.35842 0.0692 0.63041 0.19297 0.84208 0.34361 0.19155 0.13652 0.33584 0.29668 0.44732 0.46566 0.18696 0.29345 0.27301 0.60308 0.33481 0.91405h-0.48189c-0.46108 0-0.85866-0.32491-0.95038-0.77682m-4.0658-7.1198c-0.69145-3.5e-4 -1.2799-0.15451-1.7815-0.38664-0.79834-0.4063-1.4334-0.98484-1.9272-1.6531h5.2836l0.34043 1.6771c-0.71331 0.25682-1.3497 0.36265-1.9152 0.36265m11.514-2.6592-0.77787 3.8322h-1.5085v0.61948h1.3829l-0.75777 3.7334c-0.5535 0.0663-0.99518 0.24448-1.3335 0.48649-0.25894 0.18485-0.45649 0.40428-0.6043 0.629-0.22261 0.33761-0.33585 0.6858-0.39547 0.96696-0.0226 0.10689-0.0374 0.20426-0.0469 0.28822h-1.3501c-7e-3 -0.0596-0.0159-0.12523-0.0289-0.1972-0.0642-0.35348-0.21307-0.84243-0.5782-1.2799-0.18203-0.21802-0.41875-0.42086-0.7179-0.57891-0.29175-0.15416-0.64241-0.26458-1.0548-0.31432l-0.75776-3.7338h1.3829v-0.61948h-1.5088l-0.77752-3.8322h-6.8432c0.37014 0.75761 0.85176 1.4182 1.3088 1.8634 0.3683 0.35136 0.83608 0.70485 1.4108 0.97119 0.57467 0.2667 1.2573 0.4445 2.0422 0.44415 0.61806 3.5e-4 1.2989-0.11112 2.0398-0.3683l1.4189 6.9917c0.15063 0.74084 0.80151 1.2732 1.5575 1.2732h3.5627c0.75601 0 1.4072-0.53234 1.5575-1.2732l1.4129-6.9617c0.70767 0.23601 1.3596 0.33866 1.9537 0.33831 0.78457 3.5e-4 1.4672-0.17745 2.0419-0.44415 0.8629-0.40005 1.4831-0.99412 1.8898-1.4862 0.35837-0.39973 0.59527-0.87262 0.82974-1.3483z"/>
 </g>
</svg>
