<?xml version="1.0" encoding="UTF-8" standalone="no"?>
<svg
   xmlns:dc="http://purl.org/dc/elements/1.1/"
   xmlns:cc="http://creativecommons.org/ns#"
   xmlns:rdf="http://www.w3.org/1999/02/22-rdf-syntax-ns#"
   xmlns:svg="http://www.w3.org/2000/svg"
   xmlns="http://www.w3.org/2000/svg"
   xmlns:sodipodi="http://sodipodi.sourceforge.net/DTD/sodipodi-0.dtd"
   xmlns:inkscape="http://www.inkscape.org/namespaces/inkscape"
   width="24.873652mm"
   height="23.900414mm"
   viewBox="0 0 24.873652 23.900414"
   version="1.1"
   id="svg634"
   inkscape:version="1.0.2 (e86c8708, 2021-01-15)"
   sodipodi:docname="logoWithName.svg">
  <defs
     id="defs628">
    <clipPath
       clipPathUnits="userSpaceOnUse"
       id="clipPath86">
      <path
         d="M 0,2000 H 2000 V 0 H 0 Z"
         id="path84" />
    </clipPath>
  </defs>
  <sodipodi:namedview
     id="base"
     pagecolor="#ffffff"
     bordercolor="#666666"
     borderopacity="1.0"
     inkscape:pageopacity="0.0"
     inkscape:pageshadow="2"
     inkscape:zoom="5.8685095"
     inkscape:cx="60.515502"
     inkscape:cy="35.430974"
     inkscape:document-units="mm"
     inkscape:current-layer="layer1"
     inkscape:document-rotation="0"
     showgrid="false"
     inkscape:window-width="1792"
     inkscape:window-height="1067"
     inkscape:window-x="0"
     inkscape:window-y="25"
     inkscape:window-maximized="1"
     inkscape:snap-page="false" />
  <metadata
     id="metadata631">
    <rdf:RDF>
      <cc:Work
         rdf:about="">
        <dc:format>image/svg+xml</dc:format>
        <dc:type
           rdf:resource="http://purl.org/dc/dcmitype/StillImage" />
        <dc:title></dc:title>
      </cc:Work>
    </rdf:RDF>
  </metadata>
  <g
     inkscape:label="Layer 1"
     inkscape:groupmode="layer"
     id="layer1"
     transform="translate(-93.396504,-136.21646)"
     style="display:inline">
    <path
       d="m 97.534023,139.51387 c 0.902406,0.84137 1.913819,1.26541 3.025427,1.26506 h 3.53624 c 0.01,-0.001 0.0416,0.007 0.0847,0.0286 0.13158,0.0635 0.37006,0.23424 0.70308,0.50729 0.44732,0.36583 0.75212,0.62018 0.91334,0.76094 l 0.0367,0.0321 0.0367,-0.0318 c 0.16193,-0.14111 0.46673,-0.39546 0.91334,-0.76129 0.22261,-0.18203 0.40429,-0.31821 0.54363,-0.40781 0.0695,-0.0448 0.12842,-0.0776 0.17569,-0.0988 0.0466,-0.0215 0.0822,-0.03 0.0988,-0.0293 h 3.56693 c 1.13171,3.5e-4 2.14842,-0.41839 3.04059,-1.24989 0.89253,-0.83079 1.51307,-1.91311 1.86055,-3.24273 l 0.0183,-0.0698 h -0.75459 l -0.0117,0.0402 c -0.32244,1.1303 -0.86607,2.0447 -1.63018,2.74849 l 0.0377,0.0413 -0.0381,-0.0413 c -0.76411,0.70415 -1.60231,1.05199 -2.52271,1.05234 h -3.56693 c -0.17639,3.5e-4 -0.38136,0.0649 -0.62019,0.18944 -0.23742,0.12383 -0.48401,0.28857 -0.74048,0.49354 -0.12735,0.1016 -0.22754,0.18309 -0.30198,0.24447 -0.0466,0.0388 -0.0811,0.0681 -0.10724,0.091 -0.35066,-0.29104 -0.66005,-0.53093 -0.9264,-0.71861 -0.28045,-0.1972 -0.55033,-0.29986 -0.80962,-0.29986 h -3.53624 c -0.920049,-3.5e-4 -1.75331,-0.34361 -2.507549,-1.03681 -0.753534,-0.69356 -1.291872,-1.61326 -1.61537,-2.76366 l -0.01129,-0.0406 h -0.753886 l 0.01764,0.0691 c 0.327025,1.30986 0.942622,2.3876 1.845028,3.22827"
       style="fill:#000000;fill-opacity:1;fill-rule:nonzero;stroke:none;stroke-width:0.352778"
       id="path90" />
    <path
       d="m 115.57899,144.32629 c -0.32879,0.30868 -0.74013,0.61242 -1.23613,0.83855 -0.49636,0.22613 -1.07739,0.37606 -1.75789,0.37606 -0.54293,0 -1.15077,-0.0967 -1.82951,-0.33125 l 0.34678,-1.70851 h 5.19148 c -0.16404,0.23354 -0.40111,0.53129 -0.71473,0.82515 m -6.96771,8.33437 c -0.0914,0.45191 -0.48895,0.77682 -0.95039,0.77682 h -0.48154 c 0.004,-0.0279 0.008,-0.0564 0.0141,-0.0868 0.0512,-0.28575 0.17357,-0.67134 0.44344,-0.99272 0.13547,-0.16157 0.30692,-0.30903 0.5327,-0.42862 0.17462,-0.0924 0.38312,-0.16757 0.63394,-0.2159 z m -5.46347,0 -0.19191,-0.9465 c 0.35842,0.0692 0.63041,0.19297 0.84208,0.34361 0.19155,0.13652 0.33584,0.29668 0.44732,0.46566 0.16722,0.25295 0.25858,0.52811 0.30621,0.75389 0.0124,0.0572 0.0215,0.11077 0.0286,0.16016 h -0.48189 c -0.46108,0 -0.85866,-0.32491 -0.95038,-0.77682 m -4.065767,-7.11976 c -0.691444,-3.5e-4 -1.279878,-0.15451 -1.781528,-0.38664 -0.751769,-0.34784 -1.307394,-0.87595 -1.672872,-1.31868 -0.09913,-0.1203 -0.183091,-0.23284 -0.254353,-0.33444 h 5.28355 l 0.34043,1.67711 c -0.71331,0.25682 -1.349724,0.36265 -1.915227,0.36265 m 11.513957,-2.65923 -0.77787,3.83222 h -1.50848 v 0.61948 h 1.38289 l -0.75777,3.73344 c -0.5535,0.0663 -0.99518,0.24448 -1.3335,0.48649 -0.25894,0.18485 -0.45649,0.40428 -0.6043,0.629 -0.22261,0.33761 -0.33585,0.6858 -0.39547,0.96696 -0.0226,0.10689 -0.0374,0.20426 -0.0469,0.28822 h -1.35008 c -0.007,-0.0596 -0.0159,-0.12523 -0.0289,-0.1972 -0.0642,-0.35348 -0.21307,-0.84243 -0.5782,-1.27988 -0.18203,-0.21802 -0.41875,-0.42086 -0.7179,-0.57891 -0.29175,-0.15416 -0.64241,-0.26458 -1.05481,-0.31432 l -0.75776,-3.7338 h 1.38288 v -0.61948 h -1.50883 l -0.77752,-3.83222 h -0.34572 -6.497461 l 0.220486,0.44661 c 0.01058,0.0205 0.352778,0.71367 1.088319,1.41676 0.3683,0.35136 0.836084,0.70485 1.410759,0.97119 0.574675,0.2667 1.2573,0.4445 2.04223,0.44415 0.618067,3.5e-4 1.298927,-0.11112 2.039757,-0.3683 l 1.41888,6.9917 c 0.15063,0.74084 0.80151,1.27318 1.55751,1.27318 h 3.5627 c 0.75601,0 1.40723,-0.53234 1.55752,-1.27318 l 1.41287,-6.96171 c 0.70767,0.23601 1.35961,0.33866 1.95369,0.33831 0.78457,3.5e-4 1.4672,-0.17745 2.04187,-0.44415 0.8629,-0.40005 1.48308,-0.99412 1.88983,-1.48625 0.40711,-0.49283 0.60184,-0.88618 0.6096,-0.9017 l 0.22014,-0.44661 z"
       style="fill:#000000;fill-opacity:1;fill-rule:nonzero;stroke:none;stroke-width:0.352778"
       id="path94" />
    <path
       d="m 94.624171,160.08357 c -0.221897,0 -0.427214,-0.0561 -0.615597,-0.16827 -0.188736,-0.11219 -0.337961,-0.26318 -0.447322,-0.45297 -0.109714,-0.1898 -0.164748,-0.39688 -0.164748,-0.62124 0,-0.22437 0.05503,-0.43145 0.164748,-0.62124 0.109361,-0.1898 0.258586,-0.34008 0.447322,-0.45121 0.188383,-0.11077 0.3937,-0.16616 0.615597,-0.16616 0.172508,0 0.338314,0.0349 0.497417,0.10548 0.15875,0.0702 0.296333,0.1704 0.412397,0.30128 l -0.30727,0.27728 c -0.07867,-0.0864 -0.170391,-0.15275 -0.275166,-0.19967 -0.105128,-0.0469 -0.214136,-0.0702 -0.327378,-0.0702 -0.147814,0 -0.283986,0.0367 -0.408517,0.11077 -0.12453,0.0741 -0.223308,0.17427 -0.29598,0.30127 -0.07267,0.127 -0.109009,0.26458 -0.109009,0.4124 0,0.14781 0.03634,0.28539 0.109009,0.41239 0.07267,0.127 0.171803,0.2279 0.297744,0.30304 0.125589,0.0751 0.261409,0.11289 0.406753,0.11289 0.123119,0 0.239889,-0.0272 0.349603,-0.0815 0.109361,-0.054 0.203905,-0.12947 0.282575,-0.22543 l 0.325614,0.25894 c -0.116064,0.14535 -0.257881,0.25859 -0.42545,0.34008 -0.16757,0.0815 -0.345017,0.12206 -0.532342,0.12206"
       style="fill:#000000;fill-opacity:1;fill-rule:nonzero;stroke:none;stroke-width:0.352778"
       id="path98" />
    <path
       d="m 98.661995,158.02017 c -0.147814,0 -0.283986,0.037 -0.408517,0.11077 -0.12453,0.0741 -0.223308,0.17463 -0.29598,0.30163 -0.07267,0.127 -0.109009,0.26423 -0.109009,0.41239 0,0.14782 0.03634,0.28505 0.109009,0.41205 0.07267,0.127 0.17145,0.22754 0.29598,0.30127 0.124531,0.0741 0.260703,0.11113 0.408517,0.11113 0.147814,0 0.283986,-0.037 0.408517,-0.11113 0.12453,-0.0737 0.223308,-0.17357 0.29598,-0.29915 0.07267,-0.12595 0.109009,-0.26388 0.109009,-0.41417 0,-0.15063 -0.03634,-0.28857 -0.109009,-0.41416 -0.07267,-0.12594 -0.17145,-0.22577 -0.29598,-0.29986 -0.124531,-0.0737 -0.260703,-0.11077 -0.408517,-0.11077 m 0,2.0634 c -0.221897,0 -0.426861,-0.0554 -0.615597,-0.16651 -0.188736,-0.11078 -0.338314,-0.26141 -0.449439,-0.45121 -0.110772,-0.18979 -0.166158,-0.39652 -0.166158,-0.62089 0,-0.22436 0.05539,-0.43144 0.166158,-0.62124 0.111125,-0.18979 0.260703,-0.34043 0.449439,-0.4512 0.188736,-0.11077 0.3937,-0.16651 0.615597,-0.16651 0.221897,0 0.427214,0.0557 0.615597,0.16651 0.188736,0.11077 0.338314,0.26141 0.449439,0.4512 0.110772,0.1898 0.166511,0.39688 0.166511,0.62124 0,0.22437 -0.05574,0.4311 -0.166511,0.62089 -0.111125,0.1898 -0.260703,0.34043 -0.449439,0.45121 -0.188383,0.11112 -0.3937,0.16651 -0.615597,0.16651"
       style="fill:#000000;fill-opacity:1;fill-rule:nonzero;stroke:none;stroke-width:0.352778"
       id="path102" />
    <path
       d="m 103.63912,158.94459 0.43991,-1.31621 h 0.43992 l -0.83221,2.48849 -0.6357,-1.46438 -0.63606,1.46438 -0.83926,-2.48849 h 0.43992 l 0.44379,1.32362 0.59161,-1.36067 z"
       style="fill:#000000;fill-opacity:1;fill-rule:nonzero;stroke:none;stroke-width:0.352778"
       id="path106" />
    <path
       d="m 106.36797,159.93561 c 0,-0.037 0.0127,-0.0684 0.0388,-0.0942 0.0258,-0.0261 0.0561,-0.0388 0.0907,-0.0388 0.0342,0 0.0646,0.0134 0.0903,0.0406 0.0258,0.0272 0.0388,0.0579 0.0388,0.0924 0,0.0346 -0.0131,0.0642 -0.0388,0.0889 -0.0258,0.0243 -0.0561,0.0367 -0.0903,0.0367 -0.0346,0 -0.0649,-0.0124 -0.0907,-0.0367 -0.0261,-0.0247 -0.0388,-0.0543 -0.0388,-0.0889"
       style="fill:#000000;fill-opacity:1;fill-rule:nonzero;stroke:none;stroke-width:0.352778"
       id="path110" />
    <path
       d="m 108.81564,159.8949 h 0.52493 c 0.29845,0 0.54116,-0.10477 0.72849,-0.31432 0.0864,-0.0935 0.15205,-0.2025 0.19791,-0.32738 0.0455,-0.12418 0.0684,-0.25682 0.0684,-0.39723 0,-0.13794 -0.0229,-0.26952 -0.0684,-0.39405 -0.0459,-0.12418 -0.11148,-0.23319 -0.19791,-0.32703 -0.1898,-0.20461 -0.43251,-0.30691 -0.72849,-0.30691 h -0.52493 z m 0.52493,0.16651 h -0.69144 v -2.40347 h 0.69144 c 0.17004,0 0.32809,0.0314 0.47343,0.0942 0.14535,0.0628 0.27093,0.15205 0.37712,0.26811 0.10089,0.11077 0.17851,0.23777 0.23283,0.381 0.0543,0.14287 0.0815,0.29422 0.0815,0.45473 0,0.16016 -0.0272,0.31186 -0.0815,0.45473 -0.0543,0.14323 -0.13194,0.27129 -0.23283,0.38453 -0.10619,0.11853 -0.23177,0.20884 -0.37712,0.27164 -0.14534,0.0631 -0.30339,0.0945 -0.47343,0.0945"
       style="fill:#000000;fill-opacity:1;fill-rule:nonzero;stroke:none;stroke-width:0.352778"
       id="path114" />
    <path
       d="m 112.54295,160.06131 v -2.40347 h 1.55681 v 0.17003 h -1.39065 v 0.94686 h 1.08338 v 0.16969 h -1.08338 v 0.94297 h 1.39065 v 0.17392 z"
       style="fill:#000000;fill-opacity:1;fill-rule:nonzero;stroke:none;stroke-width:0.352778"
       id="path118" />
    <path
       d="m 117.17584,159.68793 0.90946,-2.03024 h 0.18486 l -1.09432,2.4444 -1.09079,-2.4444 h 0.18133 z"
       style="fill:#000000;fill-opacity:1;fill-rule:nonzero;stroke:none;stroke-width:0.352778"
       id="path122" />
  </g>
</svg>
